<svg xmlns="http://www.w3.org/2000/svg" xmlns:xlink="http://www.w3.org/1999/xlink" width="1366" zoomAndPan="magnify" viewBox="0 0 1024.5 576" height="768" preserveAspectRatio="xMidYMid meet" version="1.0"><defs><clipPath id="79637b3395"><path d="M 0 0.140625 L 1024 0.140625 L 1024 575.859375 L 0 575.859375 Z M 0 0.140625 " clip-rule="nonzero"/></clipPath><clipPath id="6c2b8f84fc"><path d="M 243 76 L 876.285156 76 L 876.285156 424 L 243 424 Z M 243 76 " clip-rule="nonzero"/></clipPath><clipPath id="fbd18d4997"><path d="M 147.640625 20.195312 L 618 20.195312 L 618 554 L 147.640625 554 Z M 147.640625 20.195312 " clip-rule="nonzero"/></clipPath><clipPath id="e8eb300426"><path d="M 222 27 L 730 27 L 730 555.433594 L 222 555.433594 Z M 222 27 " clip-rule="nonzero"/></clipPath></defs><g clip-path="url(#79637b3395)"><path fill="#ffffff" d="M 0 0.140625 L 1024 0.140625 L 1024 575.859375 L 0 575.859375 Z M 0 0.140625 " fill-opacity="1" fill-rule="nonzero"/><path fill="#ffffff" d="M 0 0.140625 L 1024 0.140625 L 1024 575.859375 L 0 575.859375 Z M 0 0.140625 " fill-opacity="1" fill-rule="nonzero"/></g><g clip-path="url(#6c2b8f84fc)"><path fill="#00906d" d="M 378.542969 76.980469 L 332.417969 76.980469 L 332.417969 95.113281 L 378.542969 95.113281 Z M 394.019531 118.046875 L 243.824219 118.046875 L 243.824219 136.183594 L 394.019531 136.183594 Z M 598.773438 159.109375 L 526.328125 159.109375 L 526.328125 177.25 L 598.773438 177.25 Z M 339.886719 200.183594 L 243.824219 200.183594 L 243.824219 218.316406 L 339.886719 218.316406 Z M 452.101562 241.246094 L 243.824219 241.246094 L 243.824219 259.371094 L 452.101562 259.371094 Z M 586.390625 259.371094 L 794.664062 259.371094 L 794.664062 241.246094 L 586.390625 241.246094 Z M 739.933594 364.4375 L 739.933594 382.574219 L 876.355469 382.574219 L 876.355469 364.4375 Z M 398.371094 382.574219 L 721.800781 382.574219 L 721.800781 364.4375 L 398.371094 364.4375 Z M 243.824219 423.636719 L 377.289062 423.636719 L 377.289062 405.507812 L 243.824219 405.507812 L 243.824219 423.636719 " fill-opacity="1" fill-rule="nonzero"/></g><path fill="#000001" d="M 661.777344 118.046875 L 511.585938 118.046875 L 511.585938 136.183594 L 661.777344 136.183594 Z M 508.195312 159.109375 L 243.824219 159.109375 L 243.824219 177.25 L 508.195312 177.25 Z M 467.269531 300.441406 L 648.96875 300.441406 L 648.96875 282.308594 L 467.269531 282.308594 Z M 380.234375 364.4375 L 243.824219 364.4375 L 243.824219 382.574219 L 380.234375 382.574219 Z M 635.605469 405.507812 L 635.605469 423.636719 L 674.582031 423.636719 L 674.582031 405.507812 Z M 327.5 464.699219 L 637.164062 464.699219 L 637.164062 446.570312 L 327.5 446.570312 L 327.5 464.699219 " fill-opacity="1" fill-rule="nonzero"/><g clip-path="url(#fbd18d4997)"><path fill="#00507b" d="M 147.640625 54.054688 L 165.769531 54.054688 L 165.769531 35.917969 L 147.640625 35.917969 Z M 147.640625 95.113281 L 165.769531 95.113281 L 165.769531 76.980469 L 147.640625 76.980469 Z M 493.449219 118.046875 L 412.152344 118.046875 L 412.152344 136.183594 L 493.449219 136.183594 Z M 147.640625 136.183594 L 165.769531 136.183594 L 165.769531 118.046875 L 147.640625 118.046875 Z M 147.640625 177.25 L 165.769531 177.25 L 165.769531 159.109375 L 147.640625 159.109375 Z M 557.429688 200.183594 L 358.011719 200.183594 L 358.011719 218.316406 L 557.429688 218.316406 Z M 147.640625 218.316406 L 165.769531 218.316406 L 165.769531 200.183594 L 147.640625 200.183594 Z M 147.640625 259.371094 L 165.769531 259.371094 L 165.769531 241.246094 L 147.640625 241.246094 Z M 449.144531 282.308594 L 243.824219 282.308594 L 243.824219 300.441406 L 449.144531 300.441406 Z M 147.640625 300.441406 L 165.769531 300.441406 L 165.769531 282.308594 L 147.640625 282.308594 Z M 147.640625 341.5 L 165.769531 341.5 L 165.769531 323.375 L 147.640625 323.375 Z M 147.640625 382.574219 L 165.769531 382.574219 L 165.769531 364.4375 L 147.640625 364.4375 Z M 395.414062 405.507812 L 395.414062 423.636719 L 617.480469 423.636719 L 617.480469 405.507812 Z M 147.640625 423.636719 L 165.769531 423.636719 L 165.769531 405.507812 L 147.640625 405.507812 Z M 243.824219 464.699219 L 309.363281 464.699219 L 309.363281 446.570312 L 243.824219 446.570312 Z M 147.640625 464.699219 L 165.769531 464.699219 L 165.769531 446.570312 L 147.640625 446.570312 Z M 147.640625 505.765625 L 165.769531 505.765625 L 165.769531 487.632812 L 147.640625 487.632812 Z M 197.15625 553.996094 L 206.015625 553.996094 L 206.015625 20.503906 L 197.15625 20.503906 L 197.15625 553.996094 " fill-opacity="1" fill-rule="nonzero"/></g><g clip-path="url(#e8eb300426)"><path fill="#00906d" d="M 314.289062 76.980469 L 222.050781 76.980469 L 222.050781 95.113281 L 314.289062 95.113281 Z M 616.898438 159.109375 L 616.898438 177.25 L 729.695312 177.25 L 729.695312 159.109375 Z M 470.21875 259.371094 L 568.261719 259.371094 L 568.261719 241.246094 L 470.21875 241.246094 Z M 222.050781 341.5 L 323.148438 341.5 L 323.148438 323.375 L 222.050781 323.375 Z M 286.730469 487.632812 L 222.050781 487.632812 L 222.050781 505.765625 L 286.730469 505.765625 Z M 279.4375 62.378906 C 280.199219 62.378906 280.953125 62.097656 281.523438 61.519531 L 308.652344 34.398438 C 309.800781 33.25 309.800781 31.367188 308.652344 30.226562 C 307.5 29.066406 305.628906 29.066406 304.46875 30.226562 L 277.351562 57.34375 C 276.199219 58.496094 276.199219 60.367188 277.351562 61.519531 C 277.929688 62.097656 278.683594 62.378906 279.4375 62.378906 Z M 256.914062 63.132812 C 257.484375 63.714844 258.238281 64 259 64 C 259.746094 64 260.507812 63.714844 261.085938 63.132812 C 262.246094 61.984375 262.246094 60.113281 261.089844 58.960938 L 247.996094 45.871094 L 261.085938 32.78125 C 262.234375 31.621094 262.234375 29.757812 261.085938 28.601562 C 259.9375 27.449219 258.0625 27.449219 256.914062 28.601562 L 241.726562 43.777344 C 240.574219 44.933594 240.574219 46.796875 241.726562 47.957031 Z M 329.898438 28.601562 C 328.746094 27.449219 326.875 27.449219 325.726562 28.601562 C 324.578125 29.757812 324.578125 31.632812 325.726562 32.785156 L 325.726562 32.769531 L 338.816406 45.859375 L 325.726562 58.960938 C 324.578125 60.109375 324.578125 61.984375 325.726562 63.144531 C 326.304688 63.722656 327.0625 64 327.8125 64 C 328.566406 64 329.328125 63.722656 329.898438 63.144531 L 345.082031 47.957031 C 345.640625 47.394531 345.945312 46.660156 345.945312 45.871094 C 345.945312 45.070312 345.640625 44.332031 345.082031 43.773438 Z M 329.910156 520.070312 C 328.746094 518.90625 326.875 518.90625 325.726562 520.070312 C 324.578125 521.214844 324.578125 523.09375 325.726562 524.242188 L 338.816406 537.332031 L 325.726562 550.421875 C 324.566406 551.570312 324.566406 553.445312 325.726562 554.601562 C 326.304688 555.179688 327.050781 555.46875 327.8125 555.46875 C 328.566406 555.46875 329.328125 555.179688 329.910156 554.601562 L 345.082031 539.417969 C 345.640625 538.859375 345.945312 538.117188 345.945312 537.332031 C 345.945312 536.542969 345.640625 535.789062 345.082031 535.242188 Z M 261.089844 520.070312 C 259.929688 518.910156 258.0625 518.910156 256.914062 520.070312 L 256.914062 520.058594 L 241.726562 535.242188 C 240.574219 536.394531 240.574219 538.265625 241.726562 539.417969 L 256.914062 554.601562 C 257.484375 555.171875 258.242188 555.457031 259 555.457031 C 259.757812 555.457031 260.507812 555.179688 261.089844 554.605469 C 262.246094 553.445312 262.246094 551.570312 261.089844 550.421875 L 247.988281 537.332031 L 261.089844 524.242188 C 262.246094 523.089844 262.246094 521.214844 261.089844 520.070312 Z M 304.46875 521.683594 L 277.351562 548.804688 C 276.199219 549.953125 276.199219 551.828125 277.351562 552.984375 C 277.929688 553.5625 278.683594 553.847656 279.4375 553.847656 C 280.199219 553.847656 280.953125 553.5625 281.53125 552.984375 L 308.652344 525.859375 C 309.800781 524.699219 309.800781 522.835938 308.652344 521.683594 C 307.503906 520.527344 305.625 520.527344 304.46875 521.683594 " fill-opacity="1" fill-rule="nonzero"/></g></svg>