<svg xmlns="http://www.w3.org/2000/svg" xmlns:xlink="http://www.w3.org/1999/xlink" width="1366" zoomAndPan="magnify" viewBox="0 0 1024.5 576" height="768" preserveAspectRatio="xMidYMid meet" version="1.0"><defs><clipPath id="803e24cd97"><path d="M 281.710938 62.558594 L 732.242188 62.558594 L 732.242188 513.085938 L 281.710938 513.085938 Z M 281.710938 62.558594 " clip-rule="nonzero"/></clipPath></defs><g clip-path="url(#803e24cd97)"><path fill="#ffffff" d="M 507.152344 513.4375 C 382.84375 513.4375 281.710938 412.304688 281.710938 287.996094 C 281.710938 163.691406 382.84375 62.558594 507.152344 62.558594 C 631.460938 62.558594 732.59375 163.691406 732.59375 287.996094 C 732.59375 412.304688 631.460938 513.4375 507.152344 513.4375 Z M 507.152344 513.4375 " fill-opacity="1" fill-rule="nonzero"/></g><path fill="#303030" d="M 444.625 347.808594 C 441.28125 347.808594 437.914062 346.75 435.058594 344.5625 L 378.273438 301.097656 C 374.429688 298.15625 372.148438 293.605469 372.09375 288.765625 C 372.035156 283.921875 374.207031 279.320312 377.988281 276.292969 L 433.601562 231.660156 C 440.394531 226.203125 450.3125 227.296875 455.761719 234.085938 C 461.207031 240.875 460.121094 250.796875 453.332031 256.246094 L 413.402344 288.289062 L 454.21875 319.53125 C 461.132812 324.820312 462.445312 334.714844 457.152344 341.625 C 454.050781 345.683594 449.363281 347.808594 444.625 347.808594 Z M 444.625 347.808594 " fill-opacity="1" fill-rule="nonzero"/><path fill="#303030" d="M 569.683594 347.808594 C 564.941406 347.808594 560.253906 345.683594 557.152344 341.625 C 551.859375 334.714844 553.175781 324.820312 560.085938 319.53125 L 600.902344 288.289062 L 560.972656 256.246094 C 554.183594 250.792969 553.097656 240.875 558.546875 234.085938 C 564 227.296875 573.921875 226.207031 580.707031 231.660156 L 636.320312 276.292969 C 640.097656 279.320312 642.269531 283.921875 642.214844 288.765625 C 642.160156 293.609375 639.878906 298.15625 636.03125 301.097656 L 579.246094 344.5625 C 576.390625 346.75 573.023438 347.808594 569.683594 347.808594 Z M 569.683594 347.808594 " fill-opacity="1" fill-rule="nonzero"/><path fill="#303030" d="M 481.527344 377.984375 C 480.160156 377.984375 478.773438 377.804688 477.390625 377.429688 C 468.988281 375.15625 464.023438 366.496094 466.300781 358.09375 L 506.542969 209.648438 C 508.820312 201.246094 517.476562 196.285156 525.882812 198.558594 C 534.28125 200.835938 539.25 209.496094 536.972656 217.898438 L 496.730469 366.339844 C 494.828125 373.359375 488.464844 377.980469 481.527344 377.980469 Z M 481.527344 377.984375 " fill-opacity="1" fill-rule="nonzero"/></svg>