<svg xmlns="http://www.w3.org/2000/svg" xmlns:xlink="http://www.w3.org/1999/xlink" width="1366" zoomAndPan="magnify" viewBox="0 0 1024.5 576" height="768" preserveAspectRatio="xMidYMid meet" version="1.0"><defs><clipPath id="3649592857"><path d="M 0 0.140625 L 1024 0.140625 L 1024 575.859375 L 0 575.859375 Z M 0 0.140625 " clip-rule="nonzero"/></clipPath><clipPath id="fc43e58730"><path d="M 399.445312 173 L 624.335938 173 L 624.335938 402.992188 L 399.445312 402.992188 Z M 399.445312 173 " clip-rule="nonzero"/></clipPath></defs><g clip-path="url(#3649592857)"><path fill="#ffffff" d="M 0 0.140625 L 1024 0.140625 L 1024 575.859375 L 0 575.859375 Z M 0 0.140625 " fill-opacity="1" fill-rule="nonzero"/><path fill="#ffffff" d="M 0 0.140625 L 1024 0.140625 L 1024 575.859375 L 0 575.859375 Z M 0 0.140625 " fill-opacity="1" fill-rule="nonzero"/></g><path fill="#100f0d" d="M 563.082031 207.492188 L 517.078125 222.832031 L 519.503906 230.109375 L 565.507812 214.769531 L 563.082031 207.492188 " fill-opacity="1" fill-rule="nonzero"/><path fill="#100f0d" d="M 414.78125 326.179688 L 541.292969 326.179688 L 541.292969 318.507812 L 414.78125 318.507812 L 414.78125 326.179688 " fill-opacity="1" fill-rule="nonzero"/><path fill="#100f0d" d="M 414.78125 341.515625 L 541.292969 341.515625 L 541.292969 333.847656 L 414.78125 333.847656 L 414.78125 341.515625 " fill-opacity="1" fill-rule="nonzero"/><g clip-path="url(#fc43e58730)"><path fill="#100f0d" d="M 561.621094 347.773438 C 554.757812 336.351562 555.042969 322.042969 562.492188 310.867188 L 563.171875 309.847656 L 609.96875 281.761719 C 606.992188 291.050781 608.304688 301.335938 613.90625 309.746094 L 616.417969 313.515625 Z M 616.113281 359.722656 L 561.566406 393.824219 C 554.683594 382.398438 554.964844 368.070312 562.421875 356.886719 L 563.179688 355.746094 C 563.582031 355.554688 563.976562 355.347656 564.355469 355.109375 L 607.554688 328.101562 C 605.890625 339.28125 608.898438 350.703125 616.113281 359.722656 Z M 553.636719 349.1875 L 410.949219 349.1875 C 408.835938 349.1875 407.113281 347.464844 407.113281 345.351562 L 407.113281 311.191406 C 407.113281 311.074219 407.125 310.953125 407.136719 310.839844 L 553.636719 310.839844 C 547.464844 322.894531 547.464844 337.132812 553.636719 349.1875 Z M 553.566406 395.207031 L 430.117188 395.207031 C 428.003906 395.207031 426.28125 393.484375 426.28125 391.371094 L 426.28125 356.855469 L 553.566406 356.855469 C 547.394531 368.914062 547.394531 383.152344 553.566406 395.207031 Z M 456.328125 277.453125 C 456.660156 277.59375 457.003906 277.722656 457.355469 277.832031 L 511.027344 294.609375 C 512.148438 294.960938 513.304688 295.136719 514.457031 295.136719 C 515.609375 295.136719 516.765625 294.960938 517.886719 294.609375 L 571.554688 277.832031 C 574.441406 276.929688 576.757812 274.984375 578.15625 272.488281 L 610.511719 272.488281 L 559.398438 303.167969 L 416.332031 303.167969 Z M 456.953125 231.808594 L 510.621094 248.472656 L 510.621094 286.449219 L 459.640625 270.511719 C 458.035156 270.007812 456.953125 268.535156 456.953125 266.851562 Z M 518.289062 248.472656 L 571.960938 231.808594 L 571.960938 266.851562 C 571.960938 268.535156 570.878906 270.007812 569.269531 270.511719 L 518.289062 286.449219 Z M 616.929688 322.238281 L 620.480469 320.019531 C 622.253906 318.910156 623.472656 317.171875 623.914062 315.128906 C 624.351562 313.085938 623.957031 311 622.796875 309.261719 L 620.285156 305.492188 C 614.6875 297.089844 614.6875 286.238281 620.285156 277.835938 L 621.011719 276.742188 C 622.585938 274.386719 622.730469 271.371094 621.394531 268.871094 C 620.058594 266.371094 617.46875 264.820312 614.632812 264.820312 L 579.628906 264.820312 L 579.628906 229.429688 L 614.972656 218.457031 C 618.195312 217.453125 620.367188 214.511719 620.367188 211.132812 C 620.367188 207.75 618.195312 204.808594 614.972656 203.804688 L 517.949219 173.6875 C 515.636719 172.96875 513.199219 172.996094 510.902344 173.761719 L 490.242188 180.648438 L 492.667969 187.925781 L 513.328125 181.035156 C 514.09375 180.78125 514.90625 180.773438 515.675781 181.011719 L 612.699219 211.132812 L 515.59375 241.277344 C 514.847656 241.507812 514.0625 241.507812 513.320312 241.277344 L 416.414062 211.195312 L 442.71875 203.300781 L 440.515625 195.953125 L 414.210938 203.847656 C 410.960938 204.824219 408.761719 207.761719 408.75 211.15625 C 408.730469 214.554688 410.898438 217.511719 414.140625 218.519531 L 414.78125 218.71875 L 414.78125 248.417969 L 403.828125 266.679688 L 410.402344 270.628906 L 414.78125 263.324219 L 414.78125 276.324219 L 422.449219 276.324219 L 422.449219 263.324219 L 426.828125 270.628906 L 433.402344 266.679688 L 422.449219 248.417969 L 422.449219 221.097656 L 449.285156 229.429688 L 449.285156 266.851562 C 449.285156 268.714844 449.726562 270.488281 450.523438 272.0625 L 404.730469 301.511719 C 401.421875 303.640625 399.445312 307.257812 399.445312 311.191406 L 399.445312 345.351562 C 399.445312 351.695312 404.605469 356.855469 410.949219 356.855469 L 418.613281 356.855469 L 418.613281 391.371094 C 418.613281 397.714844 423.773438 402.875 430.117188 402.875 L 558.261719 402.875 C 560.417969 402.875 562.527344 402.269531 564.355469 401.125 L 620.175781 366.226562 C 622.03125 365.066406 623.304688 363.167969 623.671875 361.011719 C 624.039062 358.855469 623.464844 356.640625 622.101562 354.933594 C 615 346.050781 612.90625 334.308594 616.5 323.523438 L 616.929688 322.238281 " fill-opacity="1" fill-rule="nonzero"/></g><path fill="#100f0d" d="M 433.949219 372.195312 L 541.292969 372.195312 L 541.292969 364.527344 L 433.949219 364.527344 L 433.949219 372.195312 " fill-opacity="1" fill-rule="nonzero"/><path fill="#100f0d" d="M 433.949219 387.535156 L 541.292969 387.535156 L 541.292969 379.867188 L 433.949219 379.867188 L 433.949219 387.535156 " fill-opacity="1" fill-rule="nonzero"/><path fill="#100f0d" d="M 468.453125 189.992188 C 470.007812 192.265625 471.976562 194.234375 474.25 195.792969 C 471.976562 197.347656 470.007812 199.316406 468.453125 201.59375 C 466.898438 199.316406 464.925781 197.347656 462.652344 195.792969 C 464.925781 194.234375 466.898438 192.265625 468.453125 189.992188 Z M 464.617188 214.007812 L 464.617188 214.964844 L 472.285156 214.964844 L 472.285156 214.007812 C 472.285156 206.078125 478.734375 199.625 486.660156 199.625 L 487.621094 199.625 L 487.621094 191.957031 L 486.660156 191.957031 C 478.734375 191.957031 472.285156 185.507812 472.285156 177.578125 L 472.285156 176.617188 L 464.617188 176.617188 L 464.617188 177.578125 C 464.617188 185.507812 458.171875 191.957031 450.242188 191.957031 L 449.285156 191.957031 L 449.285156 199.625 L 450.242188 199.625 C 458.171875 199.625 464.617188 206.078125 464.617188 214.007812 " fill-opacity="1" fill-rule="nonzero"/></svg>