<svg xmlns="http://www.w3.org/2000/svg" xmlns:xlink="http://www.w3.org/1999/xlink" width="1366" zoomAndPan="magnify" viewBox="0 0 1024.5 576" height="768" preserveAspectRatio="xMidYMid meet" version="1.0"><defs><clipPath id="7a9a17c4cf"><path d="M 0 0.140625 L 1024 0.140625 L 1024 575.859375 L 0 575.859375 Z M 0 0.140625 " clip-rule="nonzero"/></clipPath><clipPath id="de71b44d4a"><path d="M 396.855469 326 L 474 326 L 474 402.992188 L 396.855469 402.992188 Z M 396.855469 326 " clip-rule="nonzero"/></clipPath><clipPath id="9845e05094"><path d="M 580 172.855469 L 626.992188 172.855469 L 626.992188 219 L 580 219 Z M 580 172.855469 " clip-rule="nonzero"/></clipPath><clipPath id="7a019bc545"><path d="M 473 268 L 626.992188 268 L 626.992188 396 L 473 396 Z M 473 268 " clip-rule="nonzero"/></clipPath><clipPath id="4091a594e1"><path d="M 404 172.855469 L 413 172.855469 L 413 181 L 404 181 Z M 404 172.855469 " clip-rule="nonzero"/></clipPath><clipPath id="caf7fd0e33"><path d="M 396.855469 180 L 405 180 L 405 189 L 396.855469 189 Z M 396.855469 180 " clip-rule="nonzero"/></clipPath><clipPath id="6a78be6384"><path d="M 619 387 L 626.992188 387 L 626.992188 396 L 619 396 Z M 619 387 " clip-rule="nonzero"/></clipPath><clipPath id="d98e0c7891"><path d="M 611 395 L 620 395 L 620 402.992188 L 611 402.992188 Z M 611 395 " clip-rule="nonzero"/></clipPath></defs><g clip-path="url(#7a9a17c4cf)"><path fill="#ffffff" d="M 0 0.140625 L 1024 0.140625 L 1024 575.859375 L 0 575.859375 Z M 0 0.140625 " fill-opacity="1" fill-rule="nonzero"/><path fill="#ffffff" d="M 0 0.140625 L 1024 0.140625 L 1024 575.859375 L 0 575.859375 Z M 0 0.140625 " fill-opacity="1" fill-rule="nonzero"/></g><g clip-path="url(#de71b44d4a)"><path fill="#000000" d="M 408.78125 380.199219 L 402.65625 386.324219 L 413.527344 397.195312 L 419.65625 391.066406 C 422.082031 392.496094 424.726562 393.597656 427.527344 394.316406 L 427.527344 402.992188 L 442.898438 402.992188 L 442.898438 394.308594 C 445.695312 393.585938 448.332031 392.484375 450.757812 391.054688 L 456.898438 397.195312 L 467.769531 386.324219 L 461.625 380.179688 C 463.054688 377.753906 464.152344 375.121094 464.875 372.324219 L 473.570312 372.324219 L 473.570312 356.949219 L 464.875 356.949219 C 464.152344 354.160156 463.054688 351.523438 461.625 349.09375 L 467.769531 342.949219 L 456.898438 332.082031 L 450.753906 338.226562 C 448.328125 336.792969 445.691406 335.695312 442.898438 334.96875 L 442.898438 326.28125 L 427.527344 326.28125 L 427.527344 334.957031 C 424.726562 335.679688 422.085938 336.78125 419.65625 338.210938 L 413.527344 332.082031 L 402.65625 342.949219 L 408.78125 349.078125 C 407.347656 351.507812 406.246094 354.148438 405.519531 356.949219 L 396.855469 356.949219 L 396.855469 372.324219 L 405.519531 372.324219 C 406.246094 375.125 407.347656 377.765625 408.78125 380.199219 Z M 435.210938 349.296875 C 443.683594 349.296875 450.554688 356.164062 450.554688 364.636719 C 450.554688 373.109375 443.683594 379.980469 435.210938 379.980469 C 426.738281 379.980469 419.871094 373.109375 419.871094 364.636719 C 419.871094 356.164062 426.738281 349.296875 435.210938 349.296875 Z M 435.210938 349.296875 " fill-opacity="1" fill-rule="nonzero"/></g><g clip-path="url(#9845e05094)"><path fill="#000000" d="M 611.089844 188.007812 L 603.980469 172.855469 L 596.867188 188.007812 L 580.964844 190.4375 L 592.472656 202.230469 L 589.757812 218.882812 L 603.980469 211.019531 L 618.203125 218.882812 L 615.488281 202.230469 L 626.992188 190.4375 Z M 611.089844 188.007812 " fill-opacity="1" fill-rule="nonzero"/></g><g clip-path="url(#7a019bc545)"><path fill="#000000" d="M 619.324219 268.746094 L 584.800781 287.925781 L 600.144531 291.761719 C 591.089844 304.402344 565.660156 336.332031 519.597656 353.128906 C 507.46875 357.554688 495.828125 360.230469 485.074219 361.734375 L 473.570312 395.324219 C 557.074219 390.734375 605.417969 314.714844 615.488281 299.433594 L 626.992188 303.265625 Z M 619.324219 268.746094 " fill-opacity="1" fill-rule="nonzero"/></g><g clip-path="url(#4091a594e1)"><path fill="#000000" d="M 404.527344 172.855469 L 412.199219 172.855469 L 412.199219 180.527344 L 404.527344 180.527344 Z M 404.527344 172.855469 " fill-opacity="1" fill-rule="nonzero"/></g><path fill="#000000" d="M 412.199219 180.527344 L 419.871094 180.527344 L 419.871094 188.199219 L 412.199219 188.199219 Z M 412.199219 180.527344 " fill-opacity="1" fill-rule="nonzero"/><g clip-path="url(#caf7fd0e33)"><path fill="#000000" d="M 396.855469 180.527344 L 404.527344 180.527344 L 404.527344 188.199219 L 396.855469 188.199219 Z M 396.855469 180.527344 " fill-opacity="1" fill-rule="nonzero"/></g><path fill="#000000" d="M 404.527344 188.199219 L 412.199219 188.199219 L 412.199219 195.871094 L 404.527344 195.871094 Z M 404.527344 188.199219 " fill-opacity="1" fill-rule="nonzero"/><path fill="#000000" d="M 435.210938 184.363281 L 442.882812 184.363281 L 442.882812 192.035156 L 435.210938 192.035156 Z M 435.210938 184.363281 " fill-opacity="1" fill-rule="nonzero"/><path fill="#000000" d="M 442.882812 192.035156 L 450.554688 192.035156 L 450.554688 199.707031 L 442.882812 199.707031 Z M 442.882812 192.035156 " fill-opacity="1" fill-rule="nonzero"/><path fill="#000000" d="M 427.542969 192.035156 L 435.210938 192.035156 L 435.210938 199.707031 L 427.542969 199.707031 Z M 427.542969 192.035156 " fill-opacity="1" fill-rule="nonzero"/><path fill="#000000" d="M 435.210938 199.707031 L 442.882812 199.707031 L 442.882812 207.375 L 435.210938 207.375 Z M 435.210938 199.707031 " fill-opacity="1" fill-rule="nonzero"/><path fill="#000000" d="M 611.652344 379.980469 L 619.324219 379.980469 L 619.324219 387.652344 L 611.652344 387.652344 Z M 611.652344 379.980469 " fill-opacity="1" fill-rule="nonzero"/><g clip-path="url(#6a78be6384)"><path fill="#000000" d="M 619.324219 387.652344 L 626.992188 387.652344 L 626.992188 395.324219 L 619.324219 395.324219 Z M 619.324219 387.652344 " fill-opacity="1" fill-rule="nonzero"/></g><path fill="#000000" d="M 603.980469 387.652344 L 611.652344 387.652344 L 611.652344 395.324219 L 603.980469 395.324219 Z M 603.980469 387.652344 " fill-opacity="1" fill-rule="nonzero"/><g clip-path="url(#d98e0c7891)"><path fill="#000000" d="M 611.652344 395.324219 L 619.324219 395.324219 L 619.324219 402.992188 L 611.652344 402.992188 Z M 611.652344 395.324219 " fill-opacity="1" fill-rule="nonzero"/></g><path fill="#000000" d="M 476.207031 302.074219 L 476.234375 302.082031 C 479.246094 302.796875 482.386719 301.570312 484.117188 299.007812 L 505.519531 267.316406 L 507.777344 294.070312 L 498.859375 355.234375 C 505.34375 353.738281 511.738281 351.890625 517.96875 349.632812 L 527.214844 296.277344 L 545.957031 305.476562 C 546.816406 305.898438 547.484375 306.625 547.839844 307.511719 L 555.851562 330 C 560.785156 326.574219 565.296875 323.03125 569.433594 319.484375 L 562.109375 294.925781 C 561.792969 293.933594 561.082031 293.113281 560.148438 292.65625 L 542.609375 283.519531 L 539.59375 260.585938 L 573.59375 234.683594 C 576.839844 232.210938 577.578125 227.632812 575.28125 224.265625 L 575.203125 224.144531 C 572.703125 220.480469 567.625 219.691406 564.132812 222.425781 L 534.484375 245.617188 L 519.195312 246.910156 C 527.636719 246.195312 533.902344 238.773438 533.191406 230.328125 C 532.476562 221.886719 525.054688 215.621094 516.609375 216.332031 C 508.164062 217.046875 501.898438 224.46875 502.613281 232.914062 C 503.324219 241.355469 510.746094 247.625 519.191406 246.910156 L 507.242188 247.917969 C 502.703125 248.304688 498.574219 250.679688 495.960938 254.414062 L 471.730469 290.699219 C 468.859375 295.011719 471.160156 300.878906 476.207031 302.074219 Z M 476.207031 302.074219 " fill-opacity="1" fill-rule="nonzero"/></svg>