<svg xmlns="http://www.w3.org/2000/svg" xmlns:xlink="http://www.w3.org/1999/xlink" width="1366" zoomAndPan="magnify" viewBox="0 0 1024.5 576" height="768" preserveAspectRatio="xMidYMid meet" version="1.0"><defs><clipPath id="7b481046db"><path d="M 0 0.140625 L 1024 0.140625 L 1024 575.859375 L 0 575.859375 Z M 0 0.140625 " clip-rule="nonzero"/></clipPath><clipPath id="3a86cfadad"><path d="M 396.855469 173.207031 L 626.992188 173.207031 L 626.992188 403.34375 L 396.855469 403.34375 Z M 396.855469 173.207031 " clip-rule="nonzero"/></clipPath></defs><g clip-path="url(#7b481046db)"><path fill="#ffffff" d="M 0 0.140625 L 1024 0.140625 L 1024 575.859375 L 0 575.859375 Z M 0 0.140625 " fill-opacity="1" fill-rule="nonzero"/><path fill="#ffffff" d="M 0 0.140625 L 1024 0.140625 L 1024 575.859375 L 0 575.859375 Z M 0 0.140625 " fill-opacity="1" fill-rule="nonzero"/></g><path fill="#0b223a" d="M 465.992188 280.683594 C 465.082031 279.386719 461.367188 274.078125 463.554688 270.753906 C 464.996094 268.550781 468.179688 268.476562 468.355469 268.476562 C 471.355469 268.445312 473.152344 270.605469 473.480469 270.996094 C 474.4375 272.15625 474.976562 273.488281 475.109375 274.984375 C 475.148438 274.144531 475.339844 273.339844 475.675781 272.566406 C 476.011719 271.796875 476.476562 271.109375 477.066406 270.507812 C 477.214844 270.355469 479.84375 267.855469 482.921875 268.796875 C 484.1875 269.183594 485.164062 269.941406 485.851562 271.074219 C 487.625 274.257812 484.734375 278.699219 483.652344 280.355469 C 482.613281 281.910156 481.371094 283.28125 479.933594 284.472656 C 478.492188 285.664062 476.914062 286.625 475.191406 287.355469 C 472.902344 286.570312 468.859375 284.761719 465.992188 280.683594 Z M 465.992188 280.683594 " fill-opacity="1" fill-rule="nonzero"/><path fill="#0b223a" d="M 466.011719 251.867188 C 465.09375 250.570312 461.378906 245.265625 463.5625 241.941406 C 465.011719 239.734375 468.195312 239.664062 468.367188 239.65625 C 471.363281 239.628906 473.164062 241.789062 473.496094 242.179688 C 474.449219 243.34375 474.992188 244.671875 475.121094 246.171875 C 475.160156 245.332031 475.351562 244.523438 475.6875 243.753906 C 476.023438 242.980469 476.484375 242.296875 477.074219 241.695312 C 477.230469 241.539062 479.855469 239.039062 482.9375 239.984375 C 484.203125 240.367188 485.179688 241.128906 485.863281 242.261719 C 487.636719 245.445312 484.746094 249.882812 483.667969 251.542969 C 482.621094 253.097656 481.375 254.46875 479.933594 255.660156 C 478.488281 256.851562 476.902344 257.8125 475.179688 258.539062 C 472.910156 257.753906 468.875 255.945312 466.011719 251.867188 Z M 466.011719 251.867188 " fill-opacity="1" fill-rule="nonzero"/><path fill="#0b223a" d="M 486.40625 311.058594 C 488.179688 314.234375 485.289062 318.671875 484.210938 320.332031 C 483.167969 321.886719 481.929688 323.257812 480.488281 324.449219 C 479.046875 325.640625 477.464844 326.601562 475.746094 327.332031 C 473.453125 326.542969 469.414062 324.738281 466.546875 320.660156 C 465.636719 319.363281 461.917969 314.054688 464.105469 310.753906 C 465.554688 308.554688 468.730469 308.476562 468.90625 308.472656 C 471.90625 308.449219 473.707031 310.605469 474.035156 311 C 474.988281 312.160156 475.53125 313.488281 475.664062 314.984375 C 475.703125 314.144531 475.890625 313.339844 476.226562 312.566406 C 476.5625 311.796875 477.027344 311.109375 477.617188 310.511719 C 477.773438 310.359375 480.394531 307.855469 483.472656 308.804688 C 484.738281 309.179688 485.714844 309.933594 486.40625 311.058594 Z M 486.40625 311.058594 " fill-opacity="1" fill-rule="nonzero"/><path fill="#0b223a" d="M 487.839844 283.988281 C 487.839844 283.71875 487.894531 283.460938 487.996094 283.214844 C 488.101562 282.964844 488.246094 282.746094 488.4375 282.554688 C 488.628906 282.367188 488.847656 282.21875 489.09375 282.117188 C 489.339844 282.011719 489.601562 281.960938 489.867188 281.960938 L 540.179688 281.960938 C 540.445312 281.960938 540.703125 282.011719 540.953125 282.117188 C 541.203125 282.21875 541.421875 282.363281 541.609375 282.554688 C 541.800781 282.746094 541.945312 282.964844 542.050781 283.210938 C 542.152344 283.460938 542.203125 283.71875 542.207031 283.988281 C 542.203125 284.257812 542.152344 284.515625 542.050781 284.761719 C 541.945312 285.011719 541.800781 285.230469 541.609375 285.417969 C 541.417969 285.609375 541.199219 285.753906 540.953125 285.855469 C 540.703125 285.960938 540.445312 286.011719 540.179688 286.011719 L 489.867188 286.011719 C 489.601562 286.011719 489.339844 285.960938 489.09375 285.855469 C 488.84375 285.753906 488.625 285.609375 488.4375 285.417969 C 488.246094 285.230469 488.097656 285.011719 487.996094 284.761719 C 487.894531 284.515625 487.839844 284.257812 487.839844 283.988281 Z M 487.839844 283.988281 " fill-opacity="1" fill-rule="nonzero"/><path fill="#0b223a" d="M 487.875 255.171875 C 487.875 254.90625 487.925781 254.648438 488.03125 254.398438 C 488.132812 254.152344 488.28125 253.933594 488.46875 253.742188 C 488.660156 253.550781 488.878906 253.40625 489.125 253.300781 C 489.375 253.199219 489.632812 253.148438 489.902344 253.144531 L 540.191406 253.144531 C 540.453125 253.15625 540.699219 253.21875 540.9375 253.328125 C 541.175781 253.433594 541.382812 253.582031 541.5625 253.773438 C 541.742188 253.960938 541.878906 254.175781 541.976562 254.417969 C 542.074219 254.660156 542.121094 254.910156 542.121094 255.171875 C 542.121094 255.429688 542.074219 255.683594 541.976562 255.925781 C 541.878906 256.167969 541.742188 256.382812 541.5625 256.570312 C 541.382812 256.757812 541.175781 256.90625 540.9375 257.015625 C 540.699219 257.125 540.453125 257.183594 540.191406 257.195312 L 489.878906 257.195312 C 489.613281 257.191406 489.355469 257.140625 489.109375 257.035156 C 488.867188 256.929688 488.648438 256.785156 488.460938 256.59375 C 488.273438 256.40625 488.128906 256.1875 488.027344 255.941406 C 487.925781 255.695312 487.875 255.441406 487.875 255.171875 Z M 487.875 255.171875 " fill-opacity="1" fill-rule="nonzero"/><path fill="#0b223a" d="M 542.757812 323.964844 C 542.757812 324.234375 542.703125 324.492188 542.601562 324.738281 C 542.496094 324.984375 542.351562 325.203125 542.164062 325.394531 C 541.972656 325.582031 541.753906 325.730469 541.507812 325.835938 C 541.261719 325.9375 541.003906 325.992188 540.734375 325.992188 L 490.421875 325.992188 C 490.011719 325.988281 489.636719 325.875 489.300781 325.644531 C 488.960938 325.417969 488.714844 325.113281 488.558594 324.734375 C 488.40625 324.359375 488.367188 323.96875 488.449219 323.566406 C 488.53125 323.167969 488.714844 322.824219 489.003906 322.535156 C 489.394531 322.140625 489.867188 321.945312 490.421875 321.941406 L 540.734375 321.941406 C 541.003906 321.941406 541.261719 321.992188 541.507812 322.097656 C 541.753906 322.199219 541.972656 322.347656 542.164062 322.535156 C 542.351562 322.726562 542.5 322.945312 542.601562 323.191406 C 542.703125 323.4375 542.757812 323.695312 542.757812 323.964844 Z M 542.757812 323.964844 " fill-opacity="1" fill-rule="nonzero"/><g clip-path="url(#3a86cfadad)"><path fill="#0b223a" d="M 511.996094 173.207031 C 448.40625 173.207031 396.855469 224.753906 396.855469 288.34375 C 396.855469 351.933594 448.40625 403.484375 511.996094 403.484375 C 575.585938 403.484375 627.132812 351.933594 627.132812 288.34375 C 627.132812 224.753906 575.589844 173.207031 511.996094 173.207031 Z M 552.59375 341.835938 C 552.59375 342.457031 552.5625 343.074219 552.503906 343.691406 C 552.441406 344.308594 552.351562 344.921875 552.230469 345.53125 C 552.109375 346.136719 551.960938 346.738281 551.78125 347.332031 C 551.601562 347.921875 551.390625 348.507812 551.15625 349.078125 C 550.917969 349.652344 550.652344 350.210938 550.359375 350.757812 C 550.070312 351.304688 549.75 351.835938 549.40625 352.351562 C 549.0625 352.867188 548.695312 353.363281 548.300781 353.84375 C 547.90625 354.320312 547.492188 354.78125 547.054688 355.21875 C 546.617188 355.65625 546.15625 356.070312 545.675781 356.464844 C 545.199219 356.859375 544.703125 357.226562 544.1875 357.570312 C 543.671875 357.917969 543.140625 358.234375 542.59375 358.527344 C 542.046875 358.820312 541.488281 359.082031 540.914062 359.320312 C 540.34375 359.558594 539.761719 359.765625 539.167969 359.945312 C 538.574219 360.125 537.972656 360.277344 537.367188 360.398438 C 536.757812 360.519531 536.144531 360.609375 535.527344 360.671875 C 534.914062 360.730469 534.292969 360.761719 533.675781 360.761719 L 469.230469 360.761719 C 468.613281 360.761719 467.992188 360.730469 467.375 360.671875 C 466.757812 360.609375 466.148438 360.519531 465.539062 360.398438 C 464.929688 360.277344 464.332031 360.128906 463.738281 359.949219 C 463.144531 359.769531 462.5625 359.558594 461.988281 359.320312 C 461.417969 359.085938 460.855469 358.820312 460.308594 358.527344 C 459.765625 358.234375 459.234375 357.917969 458.71875 357.574219 C 458.203125 357.230469 457.703125 356.859375 457.226562 356.46875 C 456.746094 356.074219 456.289062 355.65625 455.847656 355.21875 C 455.410156 354.78125 454.996094 354.324219 454.601562 353.84375 C 454.210938 353.363281 453.839844 352.867188 453.496094 352.351562 C 453.152344 351.835938 452.832031 351.304688 452.542969 350.757812 C 452.25 350.210938 451.984375 349.652344 451.746094 349.078125 C 451.511719 348.507812 451.300781 347.925781 451.121094 347.332031 C 450.941406 346.738281 450.792969 346.136719 450.671875 345.53125 C 450.550781 344.921875 450.457031 344.308594 450.398438 343.691406 C 450.335938 343.074219 450.304688 342.457031 450.304688 341.835938 L 450.304688 323.84375 C 448.070312 323.875 441.960938 323.65625 439.828125 319.402344 C 438.644531 317.046875 438.714844 313.449219 440.488281 312.1875 C 442.496094 310.773438 444.730469 313.734375 450.15625 313.910156 L 450.304688 313.910156 L 450.304688 288.34375 C 448.816406 288.398438 441.613281 288.617188 439.269531 283.921875 C 438.082031 281.5625 438.152344 277.964844 439.925781 276.710938 C 441.9375 275.296875 444.171875 278.253906 449.59375 278.425781 C 449.839844 278.425781 450.066406 278.425781 450.304688 278.425781 L 450.304688 258.035156 C 448.816406 258.082031 441.613281 258.304688 439.269531 253.613281 C 438.082031 251.253906 438.152344 247.65625 439.925781 246.398438 C 441.9375 244.980469 444.171875 247.9375 449.59375 248.113281 C 449.839844 248.113281 450.066406 248.113281 450.304688 248.113281 L 450.304688 235.851562 C 450.308594 235.234375 450.339844 234.613281 450.398438 234 C 450.460938 233.382812 450.550781 232.769531 450.671875 232.164062 C 450.792969 231.554688 450.945312 230.957031 451.125 230.363281 C 451.304688 229.769531 451.515625 229.1875 451.753906 228.617188 C 451.988281 228.042969 452.253906 227.484375 452.546875 226.9375 C 452.839844 226.390625 453.15625 225.863281 453.503906 225.347656 C 453.847656 224.832031 454.214844 224.335938 454.609375 223.855469 C 455.003906 223.378906 455.417969 222.921875 455.855469 222.484375 C 456.292969 222.042969 456.753906 221.628906 457.230469 221.238281 C 457.710938 220.84375 458.207031 220.476562 458.722656 220.132812 C 459.238281 219.789062 459.769531 219.46875 460.316406 219.179688 C 460.863281 218.886719 461.421875 218.621094 461.992188 218.386719 C 462.566406 218.148438 463.148438 217.941406 463.742188 217.761719 C 464.335938 217.582031 464.933594 217.429688 465.542969 217.308594 C 466.148438 217.1875 466.761719 217.097656 467.378906 217.039062 C 467.992188 216.976562 468.613281 216.945312 469.230469 216.945312 L 533.675781 216.945312 C 534.292969 216.945312 534.914062 216.976562 535.527344 217.039062 C 536.144531 217.097656 536.757812 217.191406 537.367188 217.3125 C 537.972656 217.433594 538.574219 217.582031 539.167969 217.761719 C 539.761719 217.941406 540.34375 218.152344 540.914062 218.386719 C 541.488281 218.625 542.046875 218.890625 542.59375 219.183594 C 543.140625 219.472656 543.671875 219.792969 544.1875 220.136719 C 544.703125 220.480469 545.199219 220.851562 545.675781 221.242188 C 546.15625 221.636719 546.617188 222.050781 547.054688 222.492188 C 547.492188 222.929688 547.90625 223.386719 548.300781 223.867188 C 548.695312 224.347656 549.0625 224.84375 549.40625 225.359375 C 549.75 225.875 550.070312 226.40625 550.359375 226.953125 C 550.652344 227.496094 550.917969 228.058594 551.15625 228.628906 C 551.390625 229.203125 551.601562 229.785156 551.78125 230.378906 C 551.960938 230.972656 552.109375 231.570312 552.230469 232.179688 C 552.351562 232.789062 552.441406 233.398438 552.503906 234.015625 C 552.5625 234.632812 552.59375 235.25 552.59375 235.871094 Z M 585.644531 246.867188 L 569.273438 309.015625 C 562.695312 323.585938 560.460938 324.304688 559.683594 324.050781 C 558.589844 323.691406 558.363281 320.796875 558.019531 316.316406 C 557.761719 312.898438 557.78125 309.480469 558.074219 306.066406 C 563.53125 285.351562 568.988281 264.636719 574.4375 243.917969 C 576.214844 240.617188 579.019531 238.753906 581.476562 239.285156 C 584.046875 239.851562 585.738281 242.910156 585.644531 246.867188 Z M 585.644531 246.867188 " fill-opacity="1" fill-rule="nonzero"/></g></svg>