<svg xmlns="http://www.w3.org/2000/svg" xmlns:xlink="http://www.w3.org/1999/xlink" width="1366" zoomAndPan="magnify" viewBox="0 0 1024.5 576" height="768" preserveAspectRatio="xMidYMid meet" version="1.0"><defs><clipPath id="ecb6f67329"><path d="M 0 0.140625 L 1024 0.140625 L 1024 575.859375 L 0 575.859375 Z M 0 0.140625 " clip-rule="nonzero"/></clipPath><clipPath id="45f4405a6d"><path d="M 396.855469 172.855469 L 626.992188 172.855469 L 626.992188 402.992188 L 396.855469 402.992188 Z M 396.855469 172.855469 " clip-rule="nonzero"/></clipPath></defs><g clip-path="url(#ecb6f67329)"><path fill="#ffffff" d="M 0 0.140625 L 1024 0.140625 L 1024 575.859375 L 0 575.859375 Z M 0 0.140625 " fill-opacity="1" fill-rule="nonzero"/><path fill="#ffffff" d="M 0 0.140625 L 1024 0.140625 L 1024 575.859375 L 0 575.859375 Z M 0 0.140625 " fill-opacity="1" fill-rule="nonzero"/></g><g clip-path="url(#45f4405a6d)"><path fill="#000000" d="M 527.488281 231.691406 L 565.96875 231.691406 L 598.121094 254.125 C 598.679688 254.515625 599.335938 254.710938 599.988281 254.710938 C 600.625 254.710938 601.261719 254.523438 601.816406 254.152344 C 602.933594 253.394531 603.46875 252.027344 603.164062 250.714844 L 598.75 231.691406 L 600.476562 231.691406 C 605.976562 231.691406 610.449219 226.445312 610.449219 220 L 610.449219 184.546875 C 610.449219 178.101562 605.976562 172.855469 600.476562 172.855469 L 527.488281 172.855469 C 521.988281 172.855469 517.515625 178.101562 517.515625 184.546875 L 517.515625 220 C 517.515625 226.445312 521.988281 231.691406 527.488281 231.691406 Z M 524.039062 184.546875 C 524.039062 181.5 525.855469 179.378906 527.488281 179.378906 L 600.476562 179.378906 C 602.109375 179.378906 603.925781 181.5 603.925781 184.546875 L 603.925781 220 C 603.925781 223.046875 602.109375 225.167969 600.476562 225.167969 L 594.644531 225.167969 C 593.648438 225.167969 592.710938 225.621094 592.089844 226.402344 C 591.472656 227.179688 591.242188 228.199219 591.46875 229.167969 L 594.890625 243.917969 L 568.859375 225.753906 C 568.3125 225.375 567.660156 225.167969 566.992188 225.167969 L 527.488281 225.167969 C 525.855469 225.167969 524.039062 223.046875 524.039062 220 Z M 534.972656 195.007812 C 534.972656 193.207031 536.433594 191.746094 538.234375 191.746094 L 589.730469 191.746094 C 591.53125 191.746094 592.992188 193.207031 592.992188 195.007812 C 592.992188 196.808594 591.53125 198.269531 589.730469 198.269531 L 538.234375 198.269531 C 536.433594 198.269531 534.972656 196.808594 534.972656 195.007812 Z M 534.972656 209.539062 C 534.972656 207.738281 536.433594 206.277344 538.234375 206.277344 L 589.730469 206.277344 C 591.53125 206.277344 592.992188 207.738281 592.992188 209.539062 C 592.992188 211.339844 591.53125 212.800781 589.730469 212.800781 L 538.234375 212.800781 C 536.433594 212.800781 534.972656 211.339844 534.972656 209.539062 Z M 423.371094 231.691406 L 425.101562 231.691406 L 420.6875 250.714844 C 420.382812 252.027344 420.917969 253.394531 422.035156 254.152344 C 422.589844 254.523438 423.226562 254.710938 423.863281 254.710938 C 424.515625 254.710938 425.167969 254.515625 425.730469 254.125 L 457.882812 231.691406 L 496.363281 231.691406 C 501.863281 231.691406 506.335938 226.445312 506.335938 220 L 506.335938 184.546875 C 506.335938 178.101562 501.859375 172.855469 496.363281 172.855469 L 423.371094 172.855469 C 417.875 172.855469 413.402344 178.101562 413.402344 184.546875 L 413.402344 220 C 413.402344 226.445312 417.875 231.691406 423.371094 231.691406 Z M 419.921875 184.546875 C 419.921875 181.5 421.742188 179.378906 423.371094 179.378906 L 496.363281 179.378906 C 497.996094 179.378906 499.8125 181.5 499.8125 184.546875 L 499.8125 220 C 499.8125 223.046875 497.996094 225.167969 496.363281 225.167969 L 456.859375 225.167969 C 456.191406 225.167969 455.539062 225.375 454.992188 225.753906 L 428.957031 243.917969 L 432.382812 229.167969 C 432.609375 228.199219 432.378906 227.179688 431.761719 226.402344 C 431.140625 225.621094 430.199219 225.167969 429.207031 225.167969 L 423.371094 225.167969 C 421.742188 225.167969 419.921875 223.042969 419.921875 219.996094 Z M 435.832031 202.753906 C 435.832031 200.4375 437.710938 198.5625 440.027344 198.5625 C 442.339844 198.5625 444.21875 200.4375 444.21875 202.753906 C 444.21875 205.070312 442.339844 206.949219 440.027344 206.949219 C 437.710938 206.949219 435.832031 205.070312 435.832031 202.753906 Z M 455.675781 202.753906 C 455.675781 200.4375 457.550781 198.5625 459.867188 198.5625 C 462.183594 198.5625 464.058594 200.4375 464.058594 202.753906 C 464.058594 205.070312 462.183594 206.949219 459.867188 206.949219 C 457.550781 206.949219 455.675781 205.070312 455.675781 202.753906 Z M 475.515625 202.753906 C 475.515625 200.4375 477.394531 198.5625 479.710938 198.5625 C 482.027344 198.5625 483.902344 200.4375 483.902344 202.753906 C 483.902344 205.070312 482.027344 206.949219 479.710938 206.949219 C 477.394531 206.949219 475.515625 205.070312 475.515625 202.753906 Z M 625.929688 377.410156 L 611.660156 324.152344 C 609.867188 317.464844 605.558594 311.863281 599.523438 308.378906 C 593.492188 304.894531 586.484375 303.964844 579.796875 305.757812 C 568.410156 308.808594 563.875 318.664062 559.871094 327.359375 L 546.074219 357.296875 L 514.714844 360.496094 C 513.761719 360.59375 512.835938 360.804688 511.9375 361.105469 C 511.039062 360.804688 510.101562 360.597656 509.132812 360.496094 L 477.773438 357.296875 L 462.21875 323.542969 C 459.300781 317.214844 454.246094 308.488281 444.054688 305.757812 C 437.367188 303.964844 430.359375 304.894531 424.324219 308.378906 C 418.289062 311.863281 413.980469 317.464844 412.1875 324.152344 L 397.917969 377.410156 C 397.183594 380.15625 396.855469 382.644531 396.855469 385.488281 L 396.855469 399.734375 C 396.855469 401.535156 398.316406 402.992188 400.117188 402.992188 L 445.457031 402.992188 C 447.257812 402.992188 448.71875 401.535156 448.71875 399.734375 L 448.71875 388.878906 L 454.226562 368.316406 L 457.273438 374.921875 C 459.316406 379.332031 463.585938 382.207031 468.433594 382.445312 L 506.472656 386.328125 C 508.371094 386.523438 510.214844 386.292969 511.914062 385.722656 C 513.242188 386.167969 514.636719 386.394531 516.039062 386.394531 C 516.484375 386.394531 516.929688 386.371094 517.371094 386.328125 L 537.238281 384.300781 C 535.886719 387.050781 535.496094 390.289062 536.375 393.46875 C 537.964844 399.214844 543.199219 402.992188 548.890625 402.992188 C 550.035156 402.992188 551.191406 402.839844 552.34375 402.523438 L 575.132812 396.25 L 575.132812 399.734375 C 575.132812 401.535156 576.589844 402.992188 578.390625 402.992188 L 623.734375 402.992188 C 625.535156 402.992188 626.992188 401.535156 626.992188 399.734375 L 626.992188 385.488281 C 626.992188 382.644531 626.667969 380.152344 625.929688 377.410156 Z M 507.140625 379.839844 L 469.003906 375.945312 C 468.9375 375.941406 468.875 375.933594 468.808594 375.933594 C 466.367188 375.832031 464.214844 374.394531 463.191406 372.1875 L 456.375 357.394531 C 455.800781 356.144531 454.503906 355.394531 453.136719 355.507812 C 451.765625 355.625 450.617188 356.589844 450.261719 357.914062 L 442.308594 387.605469 C 442.234375 387.878906 442.195312 388.164062 442.195312 388.449219 L 442.195312 396.472656 L 403.378906 396.472656 L 403.378906 385.488281 C 403.378906 383.207031 403.628906 381.296875 404.21875 379.097656 L 418.488281 325.839844 C 419.832031 320.835938 423.0625 316.640625 427.585938 314.027344 C 432.113281 311.414062 437.359375 310.714844 442.367188 312.054688 C 448.109375 313.59375 452.535156 318.113281 456.296875 326.273438 L 472.628906 361.714844 C 473.113281 362.765625 474.113281 363.480469 475.261719 363.597656 L 508.46875 366.984375 C 512.011719 367.351562 514.597656 370.53125 514.230469 374.074219 C 513.867188 377.617188 510.679688 380.207031 507.140625 379.839844 Z M 620.472656 396.472656 L 581.652344 396.472656 L 581.652344 394.453125 L 589.214844 392.371094 C 593.957031 391.328125 597.6875 387.785156 598.972656 383.09375 L 605.746094 358.121094 C 606.21875 356.382812 605.191406 354.59375 603.453125 354.121094 C 601.714844 353.648438 599.921875 354.675781 599.453125 356.414062 L 592.679688 381.378906 C 592.035156 383.730469 590.152344 385.507812 587.761719 386.011719 L 587.667969 386.03125 L 550.609375 396.234375 C 547.179688 397.183594 543.613281 395.164062 542.660156 391.730469 C 541.714844 388.292969 543.734375 384.730469 547.164062 383.78125 L 581.144531 374.425781 L 591.941406 334.621094 C 592.410156 332.882812 591.382812 331.089844 589.644531 330.621094 C 587.910156 330.148438 586.117188 331.175781 585.644531 332.914062 L 576.210938 367.699219 L 573.589844 357.925781 C 573.589844 357.917969 573.585938 357.910156 573.585938 357.902344 L 572.269531 353 C 571.804688 351.257812 570.015625 350.226562 568.277344 350.691406 C 566.539062 351.160156 565.503906 352.945312 565.96875 354.6875 L 566.984375 358.460938 L 560.660156 372.179688 C 560.433594 372.667969 560.148438 373.121094 559.8125 373.53125 L 548.816406 376.558594 L 519.226562 379.582031 C 520.015625 378.125 520.539062 376.492188 520.71875 374.742188 C 521.015625 371.867188 520.363281 369.046875 518.875 366.628906 L 548.589844 363.59375 C 549.738281 363.476562 550.738281 362.761719 551.21875 361.714844 L 565.796875 330.085938 C 569.527344 321.972656 573.054688 314.3125 581.484375 312.054688 C 586.488281 310.714844 591.738281 311.414062 596.261719 314.027344 C 600.789062 316.636719 604.019531 320.832031 605.359375 325.839844 L 619.632812 379.09375 C 620.222656 381.296875 620.472656 383.207031 620.472656 385.484375 Z M 568.292969 371.199219 L 569.621094 368.316406 L 570.25 370.660156 Z M 427.3125 278.519531 C 427.3125 291.773438 438.097656 302.558594 451.351562 302.558594 C 464.609375 302.558594 475.390625 291.773438 475.390625 278.519531 C 475.390625 265.265625 464.609375 254.480469 451.351562 254.480469 C 438.097656 254.480469 427.3125 265.265625 427.3125 278.519531 Z M 468.871094 278.519531 C 468.871094 288.179688 461.011719 296.035156 451.351562 296.035156 C 441.695312 296.035156 433.835938 288.179688 433.835938 278.519531 C 433.835938 268.859375 441.695312 261.003906 451.351562 261.003906 C 461.011719 261.003906 468.871094 268.859375 468.871094 278.519531 Z M 548.457031 278.519531 C 548.457031 291.773438 559.242188 302.558594 572.496094 302.558594 C 585.753906 302.558594 596.535156 291.773438 596.535156 278.519531 C 596.535156 265.265625 585.753906 254.480469 572.496094 254.480469 C 559.242188 254.480469 548.457031 265.265625 548.457031 278.519531 Z M 590.015625 278.519531 C 590.015625 288.179688 582.15625 296.035156 572.496094 296.035156 C 562.839844 296.035156 554.980469 288.179688 554.980469 278.519531 C 554.980469 268.859375 562.839844 261.003906 572.496094 261.003906 C 582.15625 261.003906 590.015625 268.859375 590.015625 278.519531 Z M 590.015625 278.519531 " fill-opacity="1" fill-rule="nonzero"/></g></svg>